<svg width="800" height="200" viewBox="0 0 800 200" fill="none" xmlns="http://www.w3.org/2000/svg">
<path d="M284.99 67.84C287.23 67.0933 289.257 66.72 291.07 66.72C293.844 66.72 296.004 67.7067 297.55 69.68C299.097 71.6 300.297 74.3467 301.15 77.92C301.417 78.9867 301.95 81.3333 302.75 84.96C303.604 88.5867 304.297 91.52 304.83 93.76C306.484 100.747 307.977 106.16 309.31 110C310.697 113.84 312.884 116.907 315.87 119.2C315.23 120.8 314.164 122.08 312.67 123.04C311.23 124 309.657 124.48 307.95 124.48C304.057 124.48 301.204 121.547 299.39 115.68C298.537 112.96 297.764 110.293 297.07 107.68C295.204 108.32 292.884 108.64 290.11 108.64C287.39 108.64 284.03 108.347 280.03 107.76C278.377 114.213 277.55 119.067 277.55 122.32C277.55 123.013 277.577 123.52 277.63 123.84C276.937 123.947 275.764 124 274.11 124C272.457 124 270.99 123.493 269.71 122.48C268.484 121.413 267.87 119.92 267.87 118C267.87 115.333 270.43 107.52 275.55 94.56C280.67 81.6 283.817 72.6933 284.99 67.84ZM281.87 101.04C284.004 101.307 286.164 101.44 288.35 101.44C290.59 101.44 292.964 101.2 295.47 100.72C294.99 98.5333 293.364 90.16 290.59 75.6C287.284 84.1867 284.377 92.6667 281.87 101.04ZM354.209 68C355.916 67.1467 357.702 66.72 359.569 66.72C361.489 66.72 363.036 67.3067 364.209 68.48C365.436 69.6533 366.049 71.0667 366.049 72.72C366.049 74.3733 365.809 78.0267 365.329 83.68C364.849 89.28 364.609 93.7333 364.609 97.04C364.609 107.653 365.089 116.48 366.049 123.52C364.342 124.16 362.422 124.48 360.289 124.48C358.209 124.48 356.582 124.133 355.409 123.44C351.996 121.467 344.022 108.987 331.489 86C331.276 88.08 331.169 92.96 331.169 100.64C331.169 108.267 331.756 115.733 332.929 123.04C331.276 123.68 329.489 124 327.569 124C325.649 124 324.076 123.387 322.849 122.16C321.676 120.933 321.089 119.467 321.089 117.76C321.089 116.053 321.329 112.48 321.809 107.04C322.342 101.6 322.609 97.4933 322.609 94.72C322.609 84.1067 322.102 75.3067 321.089 68.32C322.582 67.5733 324.769 67.2 327.649 67.2C330.529 67.2 332.556 68.3467 333.729 70.64C341.622 86.6933 349.169 100.293 356.369 111.44C356.209 101.2 356.129 95.7867 356.129 95.2C356.129 85.2267 355.489 76.16 354.209 68ZM387.01 123.04C385.304 123.68 383.49 124 381.57 124C379.65 124 377.97 123.387 376.53 122.16C375.144 120.933 374.45 119.253 374.45 117.12C374.45 114.987 374.717 110.907 375.25 104.88C375.784 98.8 376.05 93.9467 376.05 90.32C376.05 80.9867 375.49 73.6 374.37 68.16C376.077 67.52 377.89 67.2 379.81 67.2C381.73 67.2 383.384 67.8133 384.77 69.04C386.21 70.2667 386.93 71.9467 386.93 74.08C386.93 76.2133 386.664 80.32 386.13 86.4C385.597 92.4267 385.33 97.2533 385.33 100.88C385.33 110.213 385.89 117.6 387.01 123.04ZM454.156 71.68L453.756 84.88C453.756 92.1333 453.969 98.64 454.396 104.4C454.823 110.107 455.783 116.32 457.276 123.04C456.103 124 454.236 124.48 451.676 124.48C446.716 124.48 444.236 122.32 444.236 118C444.236 114.427 444.396 108.96 444.716 101.6C445.089 94.24 445.276 88.48 445.276 84.32C442.396 88.48 439.356 93.6267 436.156 99.76C433.009 105.84 431.436 109.573 431.436 110.96C431.436 112.347 431.569 113.413 431.836 114.16C430.663 114.907 429.089 115.28 427.116 115.28C425.196 115.28 423.569 114.747 422.236 113.68C420.956 112.613 419.863 111.147 418.956 109.28C418.103 107.413 416.556 103.76 414.316 98.32C412.129 92.8267 410.129 88.1067 408.316 84.16C406.929 92.7467 406.236 100.347 406.236 106.96C406.236 113.573 406.449 118.933 406.876 123.04C405.169 123.68 403.463 124 401.756 124C398.343 124 396.636 122.293 396.636 118.88C396.636 116.267 397.223 111.067 398.396 103.28C399.623 95.44 400.236 88.8267 400.236 83.44C400.236 78.0533 399.943 73.0133 399.356 68.32C402.236 67.5733 404.476 67.2 406.076 67.2C409.009 67.2 410.983 68.24 411.996 70.32C413.596 73.68 415.943 79.04 419.036 86.4C422.183 93.7067 424.743 99.3333 426.716 103.28C427.249 102.16 428.476 99.76 430.396 96.08C432.369 92.3467 433.996 89.1733 435.276 86.56C436.609 83.8933 437.943 80.7467 439.276 77.12C440.663 73.44 441.543 70.24 441.916 67.52C443.836 66.9867 445.703 66.72 447.516 66.72C449.383 66.72 450.956 67.12 452.236 67.92C453.516 68.72 454.156 69.9733 454.156 71.68ZM478.74 67.84C480.98 67.0933 483.007 66.72 484.82 66.72C487.594 66.72 489.754 67.7067 491.3 69.68C492.847 71.6 494.047 74.3467 494.9 77.92C495.167 78.9867 495.7 81.3333 496.5 84.96C497.354 88.5867 498.047 91.52 498.58 93.76C500.234 100.747 501.727 106.16 503.06 110C504.447 113.84 506.634 116.907 509.62 119.2C508.98 120.8 507.914 122.08 506.42 123.04C504.98 124 503.407 124.48 501.7 124.48C497.807 124.48 494.954 121.547 493.14 115.68C492.287 112.96 491.514 110.293 490.82 107.68C488.954 108.32 486.634 108.64 483.86 108.64C481.14 108.64 477.78 108.347 473.78 107.76C472.127 114.213 471.3 119.067 471.3 122.32C471.3 123.013 471.327 123.52 471.38 123.84C470.687 123.947 469.514 124 467.86 124C466.207 124 464.74 123.493 463.46 122.48C462.234 121.413 461.62 119.92 461.62 118C461.62 115.333 464.18 107.52 469.3 94.56C474.42 81.6 477.567 72.6933 478.74 67.84ZM475.62 101.04C477.754 101.307 479.914 101.44 482.1 101.44C484.34 101.44 486.714 101.2 489.22 100.72C488.74 98.5333 487.114 90.16 484.34 75.6C481.034 84.1867 478.127 92.6667 475.62 101.04ZM514.839 68.16C516.546 67.52 518.386 67.2 520.359 67.2C525.106 67.2 527.479 69.36 527.479 73.68C527.479 76.0267 527.212 79.8933 526.679 85.28C526.146 90.6133 525.879 96.16 525.879 101.92C525.879 107.68 526.066 112.453 526.439 116.24C527.879 116.4 529.319 116.48 530.759 116.48C537.799 116.48 543.986 115.307 549.319 112.96C549.959 114.4 550.279 116.027 550.279 117.84C550.279 119.653 549.639 121.227 548.359 122.56C547.132 123.84 545.612 124.48 543.799 124.48C540.012 124.48 531.719 124.16 518.919 123.52C517.906 123.467 517.026 123.173 516.279 122.64C515.532 122.053 515.159 121.333 515.159 120.48C515.159 117.653 515.372 112.88 515.799 106.16C516.279 99.44 516.519 93.2533 516.519 87.6C516.519 81.8933 515.959 75.4133 514.839 68.16ZM556.013 69.76C561.986 67.7333 568.173 66.72 574.573 66.72C580.973 66.72 586.279 68.08 590.493 70.8C594.706 73.52 596.813 77.68 596.813 83.28C596.813 88.88 594.839 93.6 590.893 97.44C586.946 101.227 582.199 103.12 576.653 103.12C572.599 103.12 570.573 101.573 570.573 98.48C570.573 97.52 570.759 96.5067 571.133 95.44C572.573 95.8133 573.879 96 575.053 96C578.733 96 581.506 94.9867 583.373 92.96C585.293 90.9333 586.253 88.1333 586.253 84.56C586.253 80.9333 585.239 78.24 583.213 76.48C581.186 74.72 578.359 73.84 574.733 73.84C572.866 73.84 570.599 74.16 567.933 74.8C567.506 81.36 567.293 87.1733 567.293 92.24C567.293 106.427 567.853 116.693 568.973 123.04C567.266 123.68 565.453 124 563.533 124C561.613 124 559.933 123.387 558.493 122.16C557.106 120.933 556.413 119.307 556.413 117.28C556.413 115.253 556.679 111.733 557.213 106.72C557.746 101.653 558.013 97.6 558.013 94.56C558.013 85.28 557.346 77.0133 556.013 69.76ZM640.798 94.88C640.798 88.5333 639.492 83.4133 636.878 79.52C634.318 75.5733 630.292 73.6 624.798 73.6C621.492 73.6 618.558 74.6667 615.998 76.8C614.558 79.04 613.412 82.0533 612.558 85.84C611.758 89.6267 611.358 93.2267 611.358 96.64C611.358 102.933 612.638 107.973 615.198 111.76C617.758 115.547 621.812 117.44 627.358 117.44C630.398 117.44 632.985 116.213 635.118 113.76C638.905 109.333 640.798 103.04 640.798 94.88ZM624.638 124.96C616.852 124.96 610.932 122.4 606.878 117.28C602.825 112.107 600.798 105.36 600.798 97.04C600.798 88.6667 603.305 81.44 608.318 75.36C613.332 69.28 619.705 66.24 627.438 66.24C635.225 66.24 641.145 68.8533 645.198 74.08C649.305 79.3067 651.358 86.1067 651.358 94.48C651.358 102.853 648.852 110.027 643.838 116C638.825 121.973 632.425 124.96 624.638 124.96ZM683.869 84.48C684.082 83.4133 684.189 82.32 684.189 81.2C684.189 76.0267 681.656 73.44 676.589 73.44C674.296 73.44 672.349 73.92 670.749 74.88C669.256 76.64 668.509 78.7467 668.509 81.2C668.509 82.8 669.202 84.1867 670.589 85.36C671.976 86.48 673.682 87.36 675.709 88C677.789 88.64 680.029 89.44 682.429 90.4C684.829 91.36 687.042 92.4 689.069 93.52C691.149 94.5867 692.882 96.2133 694.269 98.4C695.656 100.533 696.349 103.067 696.349 106C696.349 111.6 694.189 116.16 689.869 119.68C685.602 123.2 680.456 124.96 674.429 124.96C669.576 124.96 665.442 123.76 662.029 121.36C658.669 118.907 656.989 115.493 656.989 111.12C656.989 108.88 657.656 107.013 658.989 105.52C660.376 103.973 662.002 103.2 663.869 103.2C665.789 103.2 667.202 103.44 668.109 103.92C667.682 105.52 667.469 106.96 667.469 108.24C667.469 111.12 668.269 113.413 669.869 115.12C671.522 116.773 673.789 117.6 676.669 117.6C679.549 117.6 681.869 116.853 683.629 115.36C685.389 113.867 686.269 111.893 686.269 109.44C686.269 106.933 685.282 104.88 683.309 103.28C681.389 101.68 679.042 100.4 676.269 99.44C673.496 98.48 670.722 97.4667 667.949 96.4C665.176 95.3333 662.802 93.76 660.829 91.68C658.909 89.5467 657.949 86.88 657.949 83.68C657.949 78.6667 660.109 74.5067 664.429 71.2C668.802 67.8933 673.736 66.24 679.229 66.24C683.282 66.24 686.776 67.0667 689.709 68.72C692.696 70.32 694.189 72.7733 694.189 76.08C694.189 78.48 693.416 80.5333 691.869 82.24C690.322 83.8933 688.376 84.72 686.029 84.72C685.389 84.72 684.669 84.64 683.869 84.48ZM739.591 112.96C740.231 114.4 740.551 116.027 740.551 117.84C740.551 119.653 739.911 121.227 738.631 122.56C737.404 123.84 735.884 124.48 734.071 124.48C728.418 124.48 719.564 124.16 707.511 123.52C706.551 123.467 705.698 123.173 704.951 122.64C704.204 122.053 703.831 121.333 703.831 120.48C703.831 117.653 704.044 112.88 704.471 106.16C704.951 99.44 705.191 93.1733 705.191 87.36C705.191 81.4933 704.631 74.7733 703.511 67.2C707.458 67.52 712.764 67.68 719.431 67.68C726.098 67.68 732.471 67.2 738.551 66.24C739.191 67.4133 739.511 68.8267 739.511 70.48C739.511 72.08 738.871 73.52 737.591 74.8C736.364 76.0267 734.818 76.64 732.951 76.64C731.138 76.64 728.204 76.3733 724.151 75.84C720.151 75.3067 717.191 75.04 715.271 75.04C714.844 80.4267 714.604 85.4933 714.551 90.24C717.911 90.56 721.511 90.72 725.351 90.72C729.244 90.72 732.578 90.16 735.351 89.04C735.991 90.2133 736.311 91.6267 736.311 93.28C736.311 94.88 735.671 96.3467 734.391 97.68C733.164 98.96 731.671 99.6 729.911 99.6C728.204 99.6 725.644 99.28 722.231 98.64C718.818 97.9467 716.231 97.6 714.471 97.6C714.471 106.027 714.658 112.213 715.031 116.16C717.591 116.373 719.591 116.48 721.031 116.48C728.071 116.48 734.258 115.307 739.591 112.96Z" fill="url(#paint0_linear)"/>
<path d="M197.308 146.284C188.272 118.061 178.64 87.175 138.5 87.175C120.608 87.175 107.191 93.3582 97.4808 106.078C88.8799 117.345 84.2087 132.177 79.6919 146.284C74.1406 163.572 87.7966 181.032 104.286 177.554C117.814 174.697 136.395 169.884 162.951 175.492C173.185 177.653 174.136 177.997 176.919 177.997C191.455 177.996 202.376 162.067 197.308 146.284Z" fill="url(#paint1_linear)"/>
<path d="M201.391 61.2494C191.854 61.2494 184.096 69.7679 184.096 80.2385C184.096 90.7091 191.854 99.2276 201.391 99.2276C210.927 99.2276 219 90.7091 219 80.2385C219 69.7679 210.927 61.2494 201.391 61.2494V61.2494Z" fill="#4440FF"/>
<path d="M163.656 71.6637C174.612 71.6637 183.494 59.4268 183.494 44.3319C183.494 29.2369 174.612 17 163.656 17C152.7 17 143.818 29.2369 143.818 44.3319C143.818 59.4268 152.7 71.6637 163.656 71.6637Z" fill="#5952F6"/>
<path d="M113.344 71.6637C124.3 71.6637 133.182 59.4268 133.182 44.3319C133.182 29.2369 124.3 17 113.344 17C102.388 17 93.5059 29.2369 93.5059 44.3319C93.5059 59.4268 102.388 71.6637 113.344 71.6637Z" fill="#7469EC"/>
<path d="M75.6094 61.2494C66.073 61.2494 58 69.7679 58 80.2385C58 90.7091 66.073 99.2276 75.6094 99.2276C85.1458 99.2276 92.9043 90.7091 92.9043 80.2385C92.9043 69.7679 85.1458 61.2494 75.6094 61.2494Z" fill="#9F90DD"/>
<defs>
<linearGradient id="paint0_linear" x1="755" y1="98.1775" x2="246.089" y2="98.1776" gradientUnits="userSpaceOnUse">
<stop stop-color="#04960A"/>
<stop offset="1" stop-color="#6913BF" stop-opacity="0.97"/>
</linearGradient>
<linearGradient id="paint1_linear" x1="175.291" y1="103.056" x2="73.2434" y2="163.711" gradientUnits="userSpaceOnUse">
<stop stop-color="#4440FF"/>
<stop offset="1" stop-color="#866CD2" stop-opacity="0.6"/>
</linearGradient>
</defs>
</svg>
